<svg width="32" height="32" viewBox="0 0 32 32" fill="none" xmlns="http://www.w3.org/2000/svg">
  <!-- Background circle -->
  <circle cx="16" cy="16" r="16" fill="#1A365D"/>
  
  <!-- Eagle and Home symbol -->
  <path d="M16 6L19 10L22 7L25 12L23 16L26 18L23 21L25 25L22 23L19 26L16 23L13 26L10 23L7 25L9 21L6 18L9 16L7 12L10 7L13 10L16 6Z" fill="#D4AF37"/>
  
  <!-- Small house -->
  <path d="M16 13L12 17V24H20V17L16 13Z" fill="#D4AF37"/>
  <rect x="14" y="19" width="4" height="5" fill="#1A365D"/>
</svg>
