<svg width="180" height="50" viewBox="0 0 180 50" fill="none" xmlns="http://www.w3.org/2000/svg">
  <!-- Eagle silhouette -->
  <path d="M25 8L30 15L35 10L40 18L38 25L42 28L38 32L40 38L35 35L30 40L25 35L20 40L15 35L10 38L12 32L8 28L12 25L10 18L15 10L20 15L25 8Z" fill="#D4AF37"/>
  
  <!-- Home/Building shape -->
  <path d="M25 20L18 27V40H32V27L25 20Z" fill="#1A365D"/>
  <rect x="22" y="32" width="6" height="8" fill="#D4AF37"/>
  
  <!-- Text: EAGLE -->
  <text x="48" y="20" font-family="Arial, sans-serif" font-size="14" font-weight="bold" fill="#1A365D">EAGLE</text>
  
  <!-- Text: HOME & CONSTRUCTION -->
  <text x="48" y="35" font-family="Arial, sans-serif" font-size="9" fill="#D4AF37">HOME &amp; CONSTRUCTION</text>
</svg>
